<?xml version="1.0" encoding="UTF-8"?>
<svg version="1.1" xmlns="http://www.w3.org/2000/svg" width="1024" height="1024">
<path d="M0 0 C337.92 0 675.84 0 1024 0 C1024 337.92 1024 675.84 1024 1024 C686.08 1024 348.16 1024 0 1024 C0 686.08 0 348.16 0 0 Z " fill="#FCFCFC" transform="translate(0,0)"/>
<path d="M0 0 C1.21060089 -0.00570007 2.42120178 -0.01140015 3.66848755 -0.01727295 C6.23194516 -0.02669145 8.79541471 -0.03324436 11.35888672 -0.03710938 C15.18350042 -0.04668887 19.00754629 -0.07768995 22.83203125 -0.109375 C44.16971221 -0.20212839 65.46796883 1.09107614 86.3203125 5.890625 C87.45670166 6.14408691 88.59309082 6.39754883 89.76391602 6.65869141 C155.76635327 21.76489899 212.65118127 53.52208222 261.3828125 100.203125 C262.21522461 101.00049072 262.21522461 101.00049072 263.06445312 101.81396484 C269.18069515 107.71018486 274.89803162 113.78524694 280.1875 120.44921875 C282.44205763 123.27744496 284.78157359 126.01747277 287.1328125 128.765625 C325.52340725 174.92927681 349.98866056 231.89400933 359.2578125 291.015625 C359.46100098 292.30702393 359.66418945 293.59842285 359.87353516 294.92895508 C362.19443454 310.5412735 362.58926251 326.01746647 362.5703125 341.765625 C362.56940613 343.16083374 362.56940613 343.16083374 362.56848145 344.58422852 C362.54444613 358.22104301 362.2695858 371.67791323 360.3828125 385.203125 C360.17350098 386.75507568 360.17350098 386.75507568 359.95996094 388.33837891 C358.11474069 401.78968195 355.97486678 415.10191377 352.3828125 428.203125 C352.12016602 429.17266113 351.85751953 430.14219727 351.58691406 431.14111328 C332.84797283 499.46060125 293.01084231 566.34894674 236.3828125 610.203125 C235.32772832 611.07842661 234.27583649 611.95758549 233.2265625 612.83984375 C190.88733784 648.13152783 138.24618428 672.21336904 84.3828125 683.203125 C83.67705078 683.34943359 82.97128906 683.49574219 82.24414062 683.64648438 C76.98270571 684.70673569 71.70390194 685.50695231 66.3828125 686.203125 C65.34060547 686.33992676 64.29839844 686.47672852 63.22460938 686.61767578 C-21.40358614 697.23810722 -108.29245431 678.1923097 -178.6171875 629.203125 C-179.20983398 628.79594238 -179.80248047 628.38875977 -180.41308594 627.96923828 C-188.60675722 622.33469237 -196.26032835 616.29417779 -203.76367188 609.76953125 C-205.16796841 608.5827601 -206.59545369 607.42335906 -208.03320312 606.27734375 C-214.84061428 600.84314331 -221.08192838 595.04992056 -227.20654297 588.87451172 C-228.74098966 587.32933122 -230.28586752 585.79516491 -231.83203125 584.26171875 C-238.20406025 577.89845764 -244.01637805 571.26575421 -249.6171875 564.203125 C-250.59357344 563.02914441 -251.57346553 561.85806058 -252.55859375 560.69140625 C-297.42448852 506.72789189 -322.22005353 438.53676814 -328.6171875 369.203125 C-328.71290039 368.23947021 -328.80861328 367.27581543 -328.90722656 366.28295898 C-332.93052027 323.22722711 -326.91557446 279.20586533 -313.6171875 238.203125 C-313.34825684 237.35814453 -313.07932617 236.51316406 -312.80224609 235.64257812 C-298.48857774 191.06447461 -274.22486489 149.78877751 -242.57421875 115.34375 C-240.81126244 113.41540657 -239.11764801 111.4468451 -237.4296875 109.453125 C-229.56177814 100.42708879 -220.85785255 91.81680116 -211.6171875 84.203125 C-211.08464355 83.75678711 -210.55209961 83.31044922 -210.00341797 82.85058594 C-199.91653767 74.40487852 -189.52782995 66.5533498 -178.6171875 59.203125 C-177.56168701 58.48672852 -177.56168701 58.48672852 -176.48486328 57.75585938 C-130.56638883 26.85783741 -76.34533493 8.06453732 -21.6171875 1.203125 C-20.67448502 1.07429932 -20.67448502 1.07429932 -19.71273804 0.94287109 C-13.14121856 0.11150232 -6.617953 0.02472512 0 0 Z " fill="#1A3C81" transform="translate(495.6171875,168.796875)"/>
<path d="M0 0 C13.95477842 13.27136905 23.40359993 29.55430502 29.59765625 47.6640625 C29.82815674 48.33477783 30.05865723 49.00549316 30.29614258 49.6965332 C34.55395399 62.92342512 35.80452845 75.64008609 35.66015625 89.4140625 C35.65550354 90.20592957 35.65085083 90.99779663 35.64605713 91.81365967 C35.56686903 103.30637653 35.25395101 114.43753963 32.28515625 125.6015625 C32.00309326 126.66818115 32.00309326 126.66818115 31.71533203 127.75634766 C23.26995257 158.57492808 3.76208241 183.96745063 -23.78125 200.0078125 C-40.66825894 209.49709455 -59.24783306 215.78631967 -78.71484375 216.6015625 C-79.34841797 216.62879395 -79.98199219 216.65602539 -80.63476562 216.68408203 C-114.64113848 217.94387077 -145.69028221 206.80767257 -170.71484375 183.6015625 C-194.1833726 160.80144112 -206.18945688 127.28238178 -207.01538086 95.00097656 C-207.19722637 63.27821272 -197.7417629 31.79253234 -176.71484375 7.6015625 C-176.02777344 6.78171875 -175.34070313 5.961875 -174.6328125 5.1171875 C-156.4298669 -16.00478901 -129.09666152 -31.15567004 -101.00439453 -33.27392578 C-62.42529497 -35.37195743 -29.05944548 -25.67266118 0 0 Z " fill="#FBFBFB" transform="translate(441.71484375,421.3984375)"/>
<path d="M0 0 C16.5 0 33 0 50 0 C51.69125 7.239375 53.3825 14.47875 55.125 21.9375 C60.30724897 44.0331074 65.65813945 66.08444374 71.10205078 88.11694336 C76.37532349 109.4607375 81.51733412 130.83372163 86.52270508 152.24194336 C86.96186269 154.08809667 86.96186269 154.08809667 88 156 C91.00049973 144.6042982 94.0004219 133.20844442 97 121.8125 C97.22443787 120.95983677 97.44887573 120.10717354 97.68011475 119.22867203 C102.70975281 100.12025828 107.73773222 81.01141611 112.75 61.8984375 C112.93364105 61.19817884 113.1172821 60.49792019 113.30648804 59.77644157 C115.19615579 52.57036542 117.08480671 45.36402342 118.97265625 38.1574707 C121.71877075 27.67723241 124.4657598 17.19758271 127.2734375 6.73364258 C127.86863985 4.49423373 128.43800681 2.24797275 129 0 C144.51 0 160.02 0 176 0 C181.74363426 20.67708333 181.74363426 20.67708333 183.41259766 27.08789062 C183.70905685 28.21958679 183.70905685 28.21958679 184.01150513 29.37414551 C184.64696338 31.80118288 185.28053532 34.22870792 185.9140625 36.65625 C186.37368972 38.41323943 186.83344028 40.1701966 187.29330444 41.92712402 C188.49689942 46.52678852 189.69889745 51.12686876 190.9005127 55.72705078 C192.08509175 60.26098469 193.2710952 64.79454589 194.45703125 69.328125 C195.87273897 74.74035169 197.28823194 80.15263413 198.70269775 85.56518555 C201.15043236 94.93120287 203.60126597 104.29639471 206.05761719 113.66015625 C206.55985125 115.57531574 207.06207911 117.49047685 207.56430054 119.40563965 C208.28369486 122.14889638 209.00330522 124.89209527 209.72371292 127.63508606 C212.20346691 137.07690041 214.66738497 146.52045131 217 156 C220.00894514 147.53853963 222.17113306 138.883315 224.375 130.1875 C224.81204223 128.47254116 225.24922076 126.75761705 225.68652344 125.04272461 C230.64527369 105.56395946 235.50517129 86.06014689 240.36714172 66.55705261 C242.55515534 57.78067169 244.74728716 49.00532477 246.94140625 40.23046875 C247.10430271 39.57899935 247.26719917 38.92752995 247.43503189 38.25631905 C248.24379145 35.02193177 249.05260835 31.78755884 249.8614502 28.55319214 C251.37277478 22.50949415 252.88363735 16.46568067 254.39453125 10.421875 C255.68423828 5.26304687 255.68423828 5.26304687 257 0 C272.84 0 288.68 0 305 0 C304.34331007 5.91020937 303.63669139 11.11186741 302.09375 16.74609375 C301.89762619 17.48454529 301.70150238 18.22299683 301.49943542 18.98382568 C301.06796786 20.60634744 300.63366478 22.2281172 300.1968689 23.84921265 C298.94615541 28.49457121 297.71928866 33.14626347 296.48828125 37.796875 C296.21595169 38.82342697 295.94362213 39.84997894 295.66304016 40.90763855 C292.12204234 54.27477433 288.6800509 67.66755651 285.23495483 81.05965042 C284.68437476 83.19964721 284.13348718 85.33956463 283.58251953 87.47946167 C278.69116947 106.47858156 273.83082817 125.48539005 269 144.5 C263.97611521 164.27166775 258.92695601 184.03674518 253.84838867 203.79443359 C253.07750539 206.79368293 252.30769016 209.79320315 251.53881836 212.79296875 C250.63787881 216.30769642 249.73471352 219.82184446 248.82978249 223.33554649 C248.33431122 225.26154966 247.84104462 227.18811955 247.3478241 229.11470032 C247.05217056 230.26061142 246.75651703 231.40652252 246.4519043 232.5871582 C246.1943486 233.58930862 245.93679291 234.59145905 245.6714325 235.62397766 C245 238 245 238 244 240 C227.17 240 210.34 240 193 240 C191.43765625 233.64234375 191.43765625 233.64234375 189.84375 227.15625 C180.58020369 189.48272905 171.2369335 151.83012197 161.80371094 114.19873047 C158.86340928 102.46725449 155.93200462 90.73355186 153 79 C150.15846827 86.00207543 148.32722996 93.13863298 146.5078125 100.46484375 C146.1662284 101.82486132 145.82415781 103.18475677 145.48164368 104.54454041 C144.74485072 107.47236951 144.01059081 110.40081714 143.27828979 113.32977295 C141.29594067 121.25561122 139.29365072 129.17643007 137.29296875 137.09765625 C137.08334314 137.92814987 136.87371754 138.75864349 136.65773964 139.61430359 C131.78955181 158.89674596 126.83599572 178.15696125 121.85174561 197.40969849 C120.90746382 201.05725233 119.96502595 204.70527454 119.02423096 208.35372925 C117.91334479 212.66138477 116.79902994 216.96813786 115.68187523 221.27417183 C115.26903725 222.86749403 114.85734104 224.46111255 114.44683266 226.05503654 C113.88634585 228.23009578 113.3215768 230.4039967 112.75561523 232.57763672 C112.28078957 234.41151443 112.28078957 234.41151443 111.79637146 236.28244019 C111 239 111 239 110 240 C108.4651703 240.09319449 106.92607918 240.117458 105.38842773 240.11352539 C104.40748642 240.11344986 103.4265451 240.11337433 102.4158783 240.11329651 C101.3492244 240.10813522 100.2825705 240.10297394 99.18359375 240.09765625 C97.55430687 240.09553383 97.55430687 240.09553383 95.8921051 240.09336853 C92.40720925 240.08775048 88.92237658 240.07519492 85.4375 240.0625 C83.08138113 240.05748733 80.72526126 240.05292402 78.36914062 240.04882812 C72.57940536 240.03777519 66.78970719 240.02101951 61 240 C56.02560238 223.0424798 51.52349902 205.96884076 47.08217621 188.86608505 C46.49083599 186.58972318 45.89864524 184.3135841 45.30621338 182.0375061 C35.03108982 142.55693897 24.98717903 103.0190217 15.08060455 63.44446182 C14.5751677 61.42559853 14.06943149 59.40681041 13.56365967 57.38803101 C10.16759269 43.82819698 6.79825026 30.26189016 3.5011425 16.67763138 C3.03668492 14.76502877 2.5703106 12.85289195 2.10389709 10.94076538 C1.82718674 9.79580597 1.55047638 8.65084656 1.26538086 7.47119141 C1.02025253 6.4600528 0.77512421 5.44891418 0.52256775 4.40713501 C0 2 0 2 0 0 Z " fill="#FBFBFB" transform="translate(478,393)"/>
<path d="M0 0 C1.50494019 0.01135986 1.50494019 0.01135986 3.0402832 0.02294922 C20.49624339 0.40832776 36.14364739 7.23318024 48.6875 19.4375 C61.02725328 33.00135681 67.87638746 51.18746778 68.6875 69.4375 C68.72004883 70.08541504 68.75259766 70.73333008 68.78613281 71.40087891 C69.88236164 96.13246568 64.28106415 120.21407044 47.4140625 138.96484375 C32.74540752 153.21926761 13.97511558 157.94087709 -6.015625 157.65625 C-11.71455121 157.45540679 -16.91670635 156.24911234 -22.3125 154.4375 C-23.17230469 154.1590625 -24.03210938 153.880625 -24.91796875 153.59375 C-42.27945833 147.34899716 -55.28532659 133.32653391 -63.0625 117 C-73.04626074 95.24080117 -72.84828114 69.5486269 -64.85546875 47.140625 C-58.1231393 30.29426866 -46.71703992 15.42189358 -30.4375 7.125 C-29.80199219 6.79935059 -29.16648437 6.47370117 -28.51171875 6.13818359 C-19.29680731 1.68137406 -10.19883542 -0.10900443 0 0 Z " fill="#1A3C80" transform="translate(357.3125,434.5625)"/>
<path d="M0 0 C0.33 0.66 0.66 1.32 1 2 C-1.09184128 8.04309704 -3.96238684 12.74348737 -9.1875 16.625 C-11.13235828 17.87917226 -11.13235828 17.87917226 -11.9375 20 C-13.39055876 22.73516942 -15.33860352 23.47920201 -18 25 C-19.36984198 26.29579647 -20.7151049 27.61992749 -22 29 C-22.66 28.67 -23.32 28.34 -24 28 C-23.59273682 27.61368408 -23.18547363 27.22736816 -22.76586914 26.8293457 C-14.03334146 18.48608008 -6.39698506 10.2802497 0 0 Z " fill="#152F73" transform="translate(459,581)"/>
<path d="M0 0 C18.56765677 -0.57425743 18.56765677 -0.57425743 26 5 C19.73 4.67 13.46 4.34 7 4 C6.67 3.34 6.34 2.68 6 2 C2.97065509 1.34227572 2.97065509 1.34227572 0 1 C0 0.67 0 0.34 0 0 Z " fill="#163176" transform="translate(549,171)"/>
<path d="M0 0 C0.33 0 0.66 0 1 0 C0.32646876 7.02518661 -1.30304056 13.6744404 -3.0625 20.5 C-3.34416016 21.60859375 -3.62582031 22.7171875 -3.91601562 23.859375 C-4.60638396 26.5740437 -5.30114375 29.28750638 -6 32 C-8.56616632 28.15075052 -8.55097676 25.5650696 -9 21 C-8.01 21 -7.02 21 -6 21 C-4.02 14.07 -2.04 7.14 0 0 Z " fill="#0D1E5C" transform="translate(702,520)"/>
<path d="M0 0 C3.14606461 0.14108523 6.29178868 0.28876136 9.4375 0.4375 C10.75524414 0.49647461 10.75524414 0.49647461 12.09960938 0.55664062 C17.76947262 0.82862668 23.36448953 1.31777645 29 2 C29 2.33 29 2.66 29 3 C18.44 3 7.88 3 -3 3 C-2.01 2.67 -1.02 2.34 0 2 C0 1.34 0 0.68 0 0 Z " fill="#0E2466" transform="translate(343,385)"/>
<path d="M0 0 C0.66 0 1.32 0 2 0 C1.58411954 6.19518473 0.39748106 11.26689311 -2 17 C-2.66 16.67 -3.32 16.34 -4 16 C-3.47606294 10.13190493 -2.23891142 5.45126259 0 0 Z " fill="#EFF2F3" transform="translate(584,484)"/>
<path d="M0 0 C2.51231378 2.51231378 2.78661713 4.37851766 3.625 7.8125 C3.88539063 8.85019531 4.14578125 9.88789063 4.4140625 10.95703125 C4.94914218 13.73587837 5.11460481 16.18176362 5 19 C3 16 3 16 2 12.875 C1.3313327 9.87488938 1.3313327 9.87488938 -1 9 C-0.67 6.03 -0.34 3.06 0 0 Z " fill="#1A2C67" transform="translate(630,470)"/>
<path d="M0 0 C2.0245738 1.93254772 3.42105792 3.63158688 5 6 C5.66 6.33 6.32 6.66 7 7 C7.88671875 9.1796875 7.88671875 9.1796875 8.6875 11.875 C8.95949219 12.75929688 9.23148437 13.64359375 9.51171875 14.5546875 C10 17 10 17 9 20 C7.68253667 17.41909233 6.37090383 14.83549542 5.0625 12.25 C4.68931641 11.52039063 4.31613281 10.79078125 3.93164062 10.0390625 C3.57392578 9.33007812 3.21621094 8.62109375 2.84765625 7.890625 C2.51773682 7.24125977 2.18781738 6.59189453 1.84790039 5.92285156 C0.98547884 3.96706921 0.45625821 2.08459306 0 0 Z " fill="#142969" transform="translate(460,444)"/>
<path d="M0 0 C0 4.09939665 -1.52298101 5.78656995 -4 9 C-6.5 10.625 -6.5 10.625 -9 12 C-10.36984198 13.29579647 -11.7151049 14.61992749 -13 16 C-13.66 15.67 -14.32 15.34 -15 15 C-10.05 10.05 -5.1 5.1 0 0 Z " fill="#112466" transform="translate(450,594)"/>
<path d="M0 0 C3.61041621 4.81388828 3.60689687 7.23945431 3 13 C2 16.5625 2 16.5625 1 19 C0.67 19 0.34 19 0 19 C0 12.73 0 6.46 0 0 Z " fill="#214089" transform="translate(855,486)"/>
<path d="M0 0 C0.70189453 0.06123047 1.40378906 0.12246094 2.12695312 0.18554688 C3.8567967 0.33852624 5.58488497 0.51112602 7.3125 0.6875 C7.3125 1.0175 7.3125 1.3475 7.3125 1.6875 C1.34575384 3.01344359 -4.61333615 2.7759587 -10.6875 2.6875 C-7.9613524 -1.37560888 -4.3364724 -0.4575363 0 0 Z " fill="#0B2162" transform="translate(550.6875,853.3125)"/>
<path d="M0 0 C3.49355371 3.02774655 4.90106142 5.51266745 6 10 C6.125 12.875 6.125 12.875 6 15 C2.22279206 10.50332388 0 5.9028782 0 0 Z " fill="#112866" transform="translate(291,540)"/>
<path d="M0 0 C0.59167969 0.13277344 1.18335938 0.26554688 1.79296875 0.40234375 C5.85446525 1.31005178 9.91374171 2.2091113 14 3 C14 3.99 14 4.98 14 6 C12.41531323 5.54636829 10.83230076 5.08688548 9.25 4.625 C8.36828125 4.36976563 7.4865625 4.11453125 6.578125 3.8515625 C4.23919428 3.0790066 2.16557438 2.16374324 0 1 C0 0.67 0 0.34 0 0 Z " fill="#162B6A" transform="translate(391,835)"/>
<path d="M0 0 C2 2 2 2 2.25 5.5 C2 9 2 9 0 11 C-1.625 8.75 -1.625 8.75 -3 6 C-2.1875 3.6875 -2.1875 3.6875 -1 2 C-0.67 2.66 -0.34 3.32 0 4 C0 2.68 0 1.36 0 0 Z " fill="#143173" transform="translate(494,463)"/>
<path d="M0 0 C5.67853635 1.41963409 9.53174216 4.39363961 14 8 C11.16032769 8 8.76264289 7.59732819 6 7 C5.67 6.01 5.34 5.02 5 4 C2.49552484 2.78130071 2.49552484 2.78130071 0 2 C0 1.34 0 0.68 0 0 Z " fill="#112665" transform="translate(386,441)"/>
<path d="M0 0 C1.45606519 4.52092968 0.27032841 7.51648796 -1 12 C-1.66 11.67 -2.32 11.34 -3 11 C-2.67 8.03 -2.34 5.06 -2 2 C-1.34 2 -0.68 2 0 2 C0 1.34 0 0.68 0 0 Z " fill="#153376" transform="translate(177,431)"/>
<path d="M0 0 C0.66 0.33 1.32 0.66 2 1 C2.6328125 3.06640625 2.6328125 3.06640625 3.125 5.5625 C3.29257813 6.38878906 3.46015625 7.21507812 3.6328125 8.06640625 C3.75398437 8.70449219 3.87515625 9.34257813 4 10 C2.68 9.67 1.36 9.34 0 9 C-1.125 3.375 -1.125 3.375 0 0 Z " fill="#172F71" transform="translate(241,556)"/>
<path d="M0 0 C1.63129887 4.06285757 0.29968777 7.20102184 -0.9375 11.25 C-1.31777344 12.51328125 -1.69804688 13.7765625 -2.08984375 15.078125 C-2.39019531 16.04234375 -2.69054687 17.0065625 -3 18 C-4.12202903 14.62606656 -3.84818636 12.31558733 -3.0625 8.875 C-2.26698006 5.46633016 -2.26698006 5.46633016 -2 2 C-1.34 2 -0.68 2 0 2 C0 1.34 0 0.68 0 0 Z " fill="#0C1D5B" transform="translate(587,465)"/>
<path d="M0 0 C3.29078593 2.79716804 5.06305458 6.19528578 7 10 C6.67 10.66 6.34 11.32 6 12 C0.11816193 5.92560175 0.11816193 5.92560175 -0.375 2.0625 C-0.25125 1.381875 -0.1275 0.70125 0 0 Z " fill="#152B6B" transform="translate(808,335)"/>
<path d="M0 0 C-2 2 -2 2 -4.625 2.125 C-5.40875 2.08375 -6.1925 2.0425 -7 2 C-7 2.66 -7 3.32 -7 4 C-9.97 3.67 -12.94 3.34 -16 3 C-16 2.67 -16 2.34 -16 2 C-14.27192682 1.66104344 -12.54248026 1.32908475 -10.8125 1 C-9.84957031 0.814375 -8.88664062 0.62875 -7.89453125 0.4375 C-5.2065794 0.03122388 -2.71228981 -0.07933572 0 0 Z " fill="#0C1D5C" transform="translate(385,635)"/>
<path d="M0 0 C9.59453303 2.89066059 9.59453303 2.89066059 13 6 C12.01 6.33 11.02 6.66 10 7 C10 6.34 10 5.68 10 5 C9.36191406 4.89042969 8.72382812 4.78085938 8.06640625 4.66796875 C7.24011719 4.50941406 6.41382813 4.35085937 5.5625 4.1875 C4.73878906 4.03667969 3.91507813 3.88585937 3.06640625 3.73046875 C2.38449219 3.48941406 1.70257812 3.24835938 1 3 C0.67 2.01 0.34 1.02 0 0 Z " fill="#0F2564" transform="translate(645,195)"/>
<path d="M0 0 C1.45350668 3.87601781 1.12977046 8.07001276 0 12 C-1.546875 13.74609375 -1.546875 13.74609375 -3 15 C-2.5547115 9.72684667 -1.91626837 4.98229776 0 0 Z " fill="#142562" transform="translate(598,595)"/>
<path d="M0 0 C0.33 0 0.66 0 1 0 C0.88590407 1.45922693 0.75834456 2.91740598 0.625 4.375 C0.55539062 5.18710937 0.48578125 5.99921875 0.4140625 6.8359375 C0 9 0 9 -2 11 C-2.33 10.67 -2.66 10.34 -3 10 C-2.71269945 7.66055264 -2.38063221 5.3260857 -2 3 C-1.34 3 -0.68 3 0 3 C0 2.01 0 1.02 0 0 Z " fill="#142D6E" transform="translate(712,480)"/>
<path d="M0 0 C0.33 0 0.66 0 1 0 C1.33 3.96 1.66 7.92 2 12 C1.01 12 0.02 12 -1 12 C-1.02712066 10.56260487 -1.04645067 9.12506137 -1.0625 7.6875 C-1.07410156 6.88699219 -1.08570313 6.08648438 -1.09765625 5.26171875 C-1 3 -1 3 0 0 Z " fill="#22448B" transform="translate(852,557)"/>
<path d="M0 0 C0.66 0.99 1.32 1.98 2 3 C1.01 4.485 1.01 4.485 0 6 C-0.99 6 -1.98 6 -3 6 C-3.66 7.32 -4.32 8.64 -5 10 C-5 6.60406522 -4.47834052 5.93380119 -2.5 3.3125 C-2.0359375 2.68988281 -1.571875 2.06726563 -1.09375 1.42578125 C-0.7328125 0.95527344 -0.371875 0.48476563 0 0 Z " fill="#152969" transform="translate(229,314)"/>
<path d="M0 0 C1.65 0.33 3.3 0.66 5 1 C2.25604436 3.94721162 -0.38337216 6.19168608 -4 8 C-4.66 7.67 -5.32 7.34 -6 7 C-2.25 4 -2.25 4 0 4 C0 2.68 0 1.36 0 0 Z " fill="#142765" transform="translate(697,799)"/>
<path d="M0 0 C0.33 0.66 0.66 1.32 1 2 C-0.98 4.97 -2.96 7.94 -5 11 C-6 7 -6 7 -5 4 C-4.01 3.67 -3.02 3.34 -2 3 C-1.34 2.01 -0.68 1.02 0 0 Z " fill="#142866" transform="translate(806,691)"/>
<path d="M0 0 C0.99 0.99 1.98 1.98 3 3 C0.6875 5.0625 0.6875 5.0625 -2 7 C-2.99 6.67 -3.98 6.34 -5 6 C-3.35 4.02 -1.7 2.04 0 0 Z " fill="#0F2B6E" transform="translate(307,458)"/>
<path d="M0 0 C2.49505962 2.49505962 2.35948376 3.67328888 2.625 7.125 C2.69976563 8.03507812 2.77453125 8.94515625 2.8515625 9.8828125 C2.92503906 10.93082031 2.92503906 10.93082031 3 12 C2.67 11.01 2.34 10.02 2 9 C1.34 9 0.68 9 0 9 C0 6.03 0 3.06 0 0 Z " fill="#142866" transform="translate(847,428)"/>
<path d="M0 0 C0.33 0.99 0.66 1.98 1 3 C-2.63 2.67 -6.26 2.34 -10 2 C-6.3558226 -0.4294516 -4.28758728 -0.16179575 0 0 Z " fill="#F4F6F4" transform="translate(482,167)"/>
<path d="M0 0 C0.99 0.33 1.98 0.66 3 1 C3.80967438 3.91482778 4.21845993 5.46113217 3.0625 8.3125 C2.5365625 9.1478125 2.5365625 9.1478125 2 10 C0.68373308 6.38026598 0 3.90432869 0 0 Z " fill="#132A6C" transform="translate(656,399)"/>
<path d="M0 0 C1.32 0.33 2.64 0.66 4 1 C3.195625 1.61875 2.39125 2.2375 1.5625 2.875 C-1.03874519 4.74164041 -1.03874519 4.74164041 -2 7 C-2.66 6.67 -3.32 6.34 -4 6 C-2.68 4.02 -1.36 2.04 0 0 Z " fill="#152F6F" transform="translate(219,329)"/>
<path d="M0 0 C1.98 0 3.96 0 6 0 C6.33 0.66 6.66 1.32 7 2 C3.32589215 3.17571451 -0.16929183 3.07366746 -4 3 C-2.68 2.67 -1.36 2.34 0 2 C0 1.34 0 0.68 0 0 Z " fill="#0D2467" transform="translate(564,851)"/>
<path d="M0 0 C0.99 0.33 1.98 0.66 3 1 C3.80967438 3.91482778 4.21845993 5.46113217 3.0625 8.3125 C2.5365625 9.1478125 2.5365625 9.1478125 2 10 C0.68373308 6.38026598 0 3.90432869 0 0 Z " fill="#102667" transform="translate(677,480)"/>
<path d="M0 0 C0.99 0 1.98 0 3 0 C2.125 4.75 2.125 4.75 1 7 C0.34 7 -0.32 7 -1 7 C-0.67 4.69 -0.34 2.38 0 0 Z " fill="#EDEFF2" transform="translate(593,447)"/>
<path d="M0 0 C1.4606285 2.64738916 2 3.89448334 2 7 C1.34 7 0.68 7 0 7 C-0.33 8.32 -0.66 9.64 -1 11 C-2.41687119 6.74938644 -1.19320039 4.28148375 0 0 Z " fill="#E6EBF2" transform="translate(423,535)"/>
<path d="M0 0 C0.99 0 1.98 0 3 0 C2.67 1.98 2.34 3.96 2 6 C1.01 6.33 0.02 6.66 -1 7 C-0.67 4.69 -0.34 2.38 0 0 Z " fill="#28407E" transform="translate(608,554)"/>
<path d="M0 0 C2.56687367 3.8503105 1.83288724 5.58569763 1 10 C-1.29404844 6.55892734 -1.26293056 5.03160191 -1 1 C-0.67 0.67 -0.34 0.34 0 0 Z " fill="#122D74" transform="translate(236,483)"/>
<path d="M0 0 C2.97 0.33 5.94 0.66 9 1 C9 1.33 9 1.66 9 2 C5.7 2.33 2.4 2.66 -1 3 C-0.67 2.01 -0.34 1.02 0 0 Z " fill="#F3F4F3" transform="translate(562,169)"/>
<path d="M0 0 C0.33 0 0.66 0 1 0 C0.67 3.3 0.34 6.6 0 10 C-0.33 10 -0.66 10 -1 10 C-1.33 7.36 -1.66 4.72 -2 2 C-1.34 2 -0.68 2 0 2 C0 1.34 0 0.68 0 0 Z " fill="#0D2363" transform="translate(852,567)"/>
</svg>
